{
  "accessors": [
    {
      "bufferView": 2,
      "componentType": 5126,
      "count": 269,
      "max": [
        0.025669140741229057,
        0.0064902943558990955,
        0.00395530229434371
      ],
      "min": [
        -0.025751838460564613,
        -0.006490448955446482,
        -0.003965511452406645
      ],
      "type": "VEC3"
    },
    {
      "bufferView": 2,
      "byteOffset": 3228,
      "componentType": 5126,
      "count": 269,
      "max": [
        0.9719323515892029,
        0.9992338418960571,
        0.9966622591018677
      ],
      "min": [
        -0.9491062164306641,
        -0.9990999698638916,
        -0.996688961982727
      ],
      "type": "VEC3"
    },
    {
      "bufferView": 3,
      "componentType": 5126,
      "count": 269,
      "max": [
        0.8867800235748291,
        0.9999743103981018,
        0.9209752678871155,
        1.0
      ],
      "min": [
        -0.8868569135665894,
        -0.9999114871025085,
        -0.9998900890350342,
        1.0
      ],
      "type": "VEC4"
    },
    {
      "bufferView": 1,
      "componentType": 5126,
      "count": 269,
      "max": [
        0.9113196730613708,
        0.992122232913971
      ],
      "min": [
        0.01603981852531433,
        0.007839780300855637
      ],
      "type": "VEC2"
    },
    {
      "bufferView": 0,
      "componentType": 5125,
      "count": 1116,
      "type": "SCALAR"
    }
  ],
  "asset": {
    "extras": {
      "author": "Artieee (https://sketchfab.com/Artieee)",
      "license": "CC-BY-4.0 (http://creativecommons.org/licenses/by/4.0/)",
      "source": "https://sketchfab.com/3d-models/some-eraser-6732042e258b469a84262c07ec5b86a8",
      "title": "some eraser"
    },
    "generator": "Sketchfab-13.42.0",
    "version": "2.0"
  },
  "bufferViews": [
    {
      "buffer": 0,
      "byteLength": 4464,
      "name": "floatBufferViews",
      "target": 34963
    },
    {
      "buffer": 0,
      "byteLength": 2152,
      "byteOffset": 4464,
      "byteStride": 8,
      "name": "floatBufferViews",
      "target": 34962
    },
    {
      "buffer": 0,
      "byteLength": 6456,
      "byteOffset": 6616,
      "byteStride": 12,
      "name": "floatBufferViews",
      "target": 34962
    },
    {
      "buffer": 0,
      "byteLength": 4304,
      "byteOffset": 13072,
      "byteStride": 16,
      "name": "floatBufferViews",
      "target": 34962
    }
  ],
  "buffers": [
    {
      "byteLength": 17376,
      "uri": "scene.bin"
    }
  ],
  "images": [
    {
      "uri": "textures/Eraser2_baseColor.jpeg"
    },
    {
      "uri": "textures/Eraser2_metallicRoughness.png"
    },
    {
      "uri": "textures/Eraser2_normal.png"
    }
  ],
  "materials": [
    {
      "doubleSided": true,
      "name": "Eraser2",
      "normalTexture": {
        "index": 2
      },
      "pbrMetallicRoughness": {
        "baseColorTexture": {
          "index": 0
        },
        "metallicFactor": 0.0,
        "metallicRoughnessTexture": {
          "index": 1
        }
      }
    }
  ],
  "meshes": [
    {
      "name": "Eraser2_Low_Eraser2_0",
      "primitives": [
        {
          "attributes": {
            "NORMAL": 1,
            "POSITION": 0,
            "TANGENT": 2,
            "TEXCOORD_0": 3
          },
          "indices": 4,
          "material": 0,
          "mode": 4
        }
      ]
    }
  ],
  "nodes": [
    {
      "children": [
        1
      ],
      "matrix": [
        1.0,
        0.0,
        0.0,
        0.0,
        0.0,
        2.220446049250313e-16,
        -1.0,
        0.0,
        0.0,
        1.0,
        2.220446049250313e-16,
        0.0,
        0.0,
        0.0,
        0.0,
        1.0
      ],
      "name": "Sketchfab_model"
    },
    {
      "children": [
        2
      ],
      "matrix": [
        0.009999999776482582,
        0.0,
        0.0,
        0.0,
        0.0,
        0.0,
        0.009999999776482582,
        0.0,
        0.0,
        -0.009999999776482582,
        0.0,
        0.0,
        0.0,
        0.0,
        0.0,
        1.0
      ],
      "name": "ec9c07e4433b433b87694a2533c933b1.fbx"
    },
    {
      "children": [
        3
      ],
      "name": "RootNode"
    },
    {
      "children": [
        4
      ],
      "matrix": [
        100.0,
        0.0,
        0.0,
        0.0,
        0.0,
        -1.629206793918314e-05,
        -99.99999999999868,
        0.0,
        0.0,
        99.99999999999868,
        -1.629206793918314e-05,
        0.0,
        0.0,
        0.0,
        0.0,
        1.0
      ],
      "name": "Eraser2_Low"
    },
    {
      "mesh": 0,
      "name": "Eraser2_Low_Eraser2_0"
    }
  ],
  "samplers": [
    {
      "magFilter": 9729,
      "minFilter": 9987,
      "wrapS": 10497,
      "wrapT": 10497
    }
  ],
  "scene": 0,
  "scenes": [
    {
      "name": "Sketchfab_Scene",
      "nodes": [
        0
      ]
    }
  ],
  "textures": [
    {
      "sampler": 0,
      "source": 0
    },
    {
      "sampler": 0,
      "source": 1
    },
    {
      "sampler": 0,
      "source": 2
    }
  ]
}
